<svg aria-hidden="true" style="position: absolute; width: 0; height: 0; overflow: hidden;" version="1.1" xmlns="http://www.w3.org/2000/svg" xmlns:xlink="http://www.w3.org/1999/xlink">
<defs>
<symbol id="icon-tweeter" viewBox="0 0 37 32">
<path stroke-linejoin="round" stroke-linecap="round" stroke-miterlimit="4" stroke-width="2.4615" d="M35.32 2.169c-1.473 1.039-3.105 1.834-4.831 2.354-0.927-1.065-2.158-1.82-3.528-2.163s-2.812-0.257-4.131 0.247c-1.319 0.503-2.452 1.4-3.245 2.568s-1.208 2.552-1.189 3.963v1.538c-2.704 0.070-5.383-0.53-7.799-1.745s-4.493-3.011-6.048-5.224c0 0-6.154 13.846 7.692 20-3.168 2.151-6.943 3.229-10.769 3.077 13.846 7.692 30.769 0 30.769-17.692-0.001-0.429-0.043-0.856-0.123-1.277 1.57-1.548 2.678-3.504 3.2-5.646v0z"></path>
</symbol>
<symbol id="icon-facebook-2" viewBox="0 0 33 32">
<path stroke-linejoin="round" stroke-linecap="round" stroke-miterlimit="4" stroke-width="2.1333" d="M24.505 2.667h-4c-1.768 0-3.464 0.702-4.714 1.953s-1.953 2.946-1.953 4.714v4h-4v5.333h4v10.667h5.333v-10.667h4l1.333-5.333h-5.333v-4c0-0.354 0.14-0.693 0.391-0.943s0.589-0.391 0.943-0.391h4v-5.333z"></path>
</symbol>
<symbol id="icon-instagram-1" viewBox="0 0 31 32">
<path stroke-linejoin="round" stroke-linecap="round" stroke-miterlimit="4" stroke-width="2.0645" d="M21.935 2.602h-12.903c-3.563 0-6.452 2.889-6.452 6.452v12.903c0 3.563 2.889 6.452 6.452 6.452h12.903c3.563 0 6.452-2.888 6.452-6.452v-12.903c0-3.563-2.888-6.452-6.452-6.452z"></path>
<path stroke-linejoin="round" stroke-linecap="round" stroke-miterlimit="4" stroke-width="2.0645" d="M20.645 14.692c0.159 1.074-0.024 2.171-0.524 3.134s-1.291 1.745-2.261 2.233-2.069 0.658-3.14 0.485c-1.072-0.172-2.062-0.678-2.83-1.446s-1.274-1.758-1.446-2.83c-0.172-1.072-0.003-2.171 0.485-3.14s1.27-1.761 2.233-2.261 2.060-0.683 3.134-0.524c1.095 0.162 2.11 0.673 2.893 1.456s1.293 1.797 1.456 2.893z"></path>
<path stroke-linejoin="round" stroke-linecap="round" stroke-miterlimit="4" stroke-width="2.0645" d="M22.581 8.408h0.013"></path>
</symbol>
<symbol id="icon-header-svg" viewBox="0 0 32 32">
<path d="M16 29.333c7.352 0 13.333-5.981 13.333-13.333s-5.981-13.333-13.333-13.333c-7.352 0-13.333 5.981-13.333 13.333s5.981 13.333 13.333 13.333zM16 5.333c5.881 0 10.667 4.785 10.667 10.667s-4.785 10.667-10.667 10.667c-5.881 0-10.667-4.785-10.667-10.667s4.785-10.667 10.667-10.667z"></path>
<path d="M25.333 16c0-5.155-4.18-9.333-9.333-9.333v18.667c5.153 0 9.333-4.179 9.333-9.333z"></path>
</symbol>
</defs>
</svg>
