<svg aria-hidden="true" style="position: absolute; width: 0; height: 0; overflow: hidden;" version="1.1" xmlns="http://www.w3.org/2000/svg" xmlns:xlink="http://www.w3.org/1999/xlink">
<defs>
<symbol id="icon-circle_right" viewBox="0 0 34 32">
<path d="M18.672 17.6h-9.872v-3.2h9.872l-4.128-4.144 2.256-2.256 8 8-8 8-2.256-2.256 4.128-4.144z"></path>
<path d="M0.8 16c0 8.836 7.163 16 16 16s16-7.164 16-16c0-8.837-7.164-16-16-16s-16 7.163-16 16zM4 16c0-7.069 5.731-12.8 12.8-12.8s12.8 5.731 12.8 12.8c0 7.069-5.731 12.8-12.8 12.8s-12.8-5.731-12.8-12.8z"></path>
</symbol>
<symbol id="icon-mobile-screen" viewBox="0 0 21 32">
<path d="M16.935 2.286h-13.299c-1.377 0-2.494 1.152-2.494 2.571v22.286c0 1.42 1.117 2.571 2.494 2.571h13.299c1.377 0 2.494-1.152 2.494-2.571v-22.286c0-1.42-1.117-2.571-2.494-2.571zM12.779 26.238c0 0.52-0.374 0.905-0.831 0.905h-3.371c-0.41 0-0.784-0.386-0.784-0.857s0.374-0.857 0.831-0.857h3.325c0.457 0 0.831 0.386 0.831 0.809zM16.104 22.857h-11.636v-17.143h11.636v17.143z"></path>
</symbol>
<symbol id="icon-twitter" viewBox="0 0 37 32">
<path d="M22.392 1.457c1.554-0.593 3.254-0.695 4.868-0.291 1.342 0.336 2.572 1.008 3.576 1.947 1.34-0.474 2.612-1.129 3.775-1.95l0.709 1.006 1.196 0.291c-0.526 2.159-1.593 4.143-3.093 5.773 0.031 0.284 0.049 0.569 0.050 0.855v0 0.005c-0 9.277-4.461 16.054-10.845 19.452-6.354 3.382-14.489 3.351-21.752-0.684-0.498-0.277-0.742-0.86-0.588-1.409s0.665-0.919 1.234-0.897c2.838 0.113 5.644-0.504 8.16-1.77-2.532-1.463-4.314-3.23-5.523-5.139-1.509-2.383-2.082-4.911-2.185-7.19-0.103-2.273 0.258-4.324 0.639-5.797 0.191-0.739 0.39-1.341 0.542-1.762 0.076-0.211 0.14-0.378 0.188-0.494 0.024-0.058 0.043-0.104 0.057-0.137 0.007-0.016 0.013-0.029 0.017-0.038 0.002-0.005 0.005-0.009 0.006-0.012 0.001-0.002 0.001-0.004 0.001-0.005l0.001-0.001c0.004 0.001 0.063 0.026 1.124 0.498l1.008-0.707c1.438 2.047 3.359 3.707 5.594 4.832 1.877 0.945 3.925 1.485 6.014 1.596v-0.29c-0.019-1.658 0.47-3.283 1.401-4.655 0.935-1.377 2.27-2.433 3.825-3.026zM18.429 11.908c-2.906 0.075-5.787-0.569-8.385-1.876-1.9-0.956-3.603-2.247-5.036-3.802-0.004 0.015-0.008 0.030-0.012 0.046-0.34 1.315-0.651 3.111-0.563 5.069 0.089 1.952 0.574 4.040 1.805 5.984 1.226 1.936 3.239 3.804 6.504 5.255 0.408 0.182 0.686 0.571 0.726 1.016s-0.165 0.877-0.535 1.127c-2 1.357-4.226 2.311-6.555 2.834 5.31 1.656 10.72 1.139 15.094-1.189 5.538-2.948 9.538-8.862 9.54-17.275-0.001-0.352-0.035-0.703-0.101-1.049v0c-0.077-0.404 0.052-0.82 0.345-1.108 0.601-0.593 1.126-1.253 1.567-1.964-0.644 0.28-1.305 0.524-1.98 0.727l-0.175 0.038c-0.411 0.061-0.83-0.090-1.108-0.41l0.929-0.808-0.001-0.001-0.928 0.809c-0.761-0.875-1.773-1.495-2.898-1.776s-2.31-0.21-3.393 0.203c-1.083 0.414-2.013 1.15-2.665 2.109-0.57 0.84-0.903 1.814-0.966 2.822l-0.011 0.434v1.554c0 0.667-0.532 1.213-1.198 1.231z"></path>
</symbol>
<symbol id="icon-facebook" viewBox="0 0 33 32">
<path stroke-linejoin="round" stroke-linecap="round" stroke-miterlimit="4" stroke-width="2.1333" d="M24.505 2.667h-4c-1.768 0-3.464 0.702-4.714 1.953s-1.953 2.946-1.953 4.714v4h-4v5.333h4v10.667h5.333v-10.667h4l1.333-5.333h-5.333v-4c0-0.354 0.14-0.693 0.391-0.943s0.589-0.391 0.943-0.391h4v-5.333z"></path>
</symbol>
<symbol id="icon-instagram" viewBox="0 0 32 32">
<path d="M31.969 9.408c-0.075-1.7-0.35-2.869-0.744-3.882-0.406-1.075-1.031-2.038-1.85-2.838-0.8-0.813-1.769-1.444-2.832-1.844-1.019-0.394-2.182-0.669-3.882-0.744-1.713-0.081-2.257-0.1-6.601-0.1s-4.888 0.019-6.595 0.094c-1.7 0.075-2.869 0.35-3.882 0.744-1.075 0.406-2.038 1.031-2.838 1.85-0.813 0.8-1.444 1.769-1.844 2.832-0.394 1.019-0.669 2.182-0.744 3.882-0.081 1.713-0.1 2.257-0.1 6.601s0.019 4.888 0.094 6.595c0.075 1.7 0.35 2.869 0.744 3.882 0.406 1.075 1.038 2.038 1.85 2.838 0.8 0.813 1.769 1.444 2.832 1.844 1.019 0.394 2.182 0.669 3.882 0.744 1.706 0.075 2.25 0.094 6.595 0.094s4.888-0.019 6.595-0.094c1.7-0.075 2.869-0.35 3.882-0.744 2.151-0.831 3.851-2.532 4.682-4.682 0.394-1.019 0.669-2.182 0.744-3.882 0.075-1.707 0.094-2.25 0.094-6.595s-0.006-4.888-0.081-6.595zM29.087 22.473c-0.069 1.563-0.331 2.407-0.55 2.969-0.538 1.394-1.644 2.5-3.038 3.038-0.563 0.219-1.413 0.481-2.969 0.55-1.688 0.075-2.194 0.094-6.464 0.094s-4.782-0.019-6.464-0.094c-1.563-0.069-2.407-0.331-2.969-0.55-0.694-0.256-1.325-0.663-1.838-1.194-0.531-0.519-0.938-1.144-1.194-1.838-0.219-0.563-0.481-1.413-0.55-2.969-0.075-1.688-0.094-2.194-0.094-6.464s0.019-4.782 0.094-6.464c0.069-1.563 0.331-2.407 0.55-2.969 0.256-0.694 0.663-1.325 1.2-1.838 0.519-0.531 1.144-0.938 1.838-1.194 0.563-0.219 1.413-0.481 2.969-0.55 1.688-0.075 2.194-0.094 6.464-0.094 4.276 0 4.782 0.019 6.464 0.094 1.563 0.069 2.407 0.331 2.969 0.55 0.694 0.256 1.325 0.662 1.838 1.194 0.531 0.519 0.938 1.144 1.194 1.838 0.219 0.563 0.481 1.413 0.55 2.969 0.075 1.688 0.094 2.194 0.094 6.464s-0.019 4.77-0.094 6.458z"></path>
<path d="M16.059 7.783c-4.538 0-8.22 3.682-8.22 8.22s3.682 8.22 8.22 8.22c4.538 0 8.22-3.682 8.22-8.22s-3.682-8.22-8.22-8.22zM16.059 21.335c-2.944 0-5.332-2.388-5.332-5.332s2.388-5.332 5.332-5.332c2.944 0 5.332 2.388 5.332 5.332s-2.388 5.332-5.332 5.332z"></path>
<path d="M26.524 7.458c0 1.060-0.859 1.919-1.919 1.919s-1.919-0.859-1.919-1.919c0-1.060 0.859-1.919 1.919-1.919s1.919 0.859 1.919 1.919z"></path>
</symbol>
<symbol id="icon-header-svg" viewBox="0 0 32 32">
<path d="M16 29.333c7.352 0 13.333-5.981 13.333-13.333s-5.981-13.333-13.333-13.333c-7.352 0-13.333 5.981-13.333 13.333s5.981 13.333 13.333 13.333zM16 5.333c5.881 0 10.667 4.785 10.667 10.667s-4.785 10.667-10.667 10.667c-5.881 0-10.667-4.785-10.667-10.667s4.785-10.667 10.667-10.667z"></path>
<path d="M25.333 16c0-5.155-4.18-9.333-9.333-9.333v18.667c5.153 0 9.333-4.179 9.333-9.333z"></path>
</symbol>
</defs>
</svg>
